# File created by Blade
# Date/Time:  Wed Jan 21 17:57:21 2015
#---------------------------------------------------------
:version 1.10
:name HOM
:units
  mass 1.0
  length 1.000000
  angle deg
:documentation
     Acclaim Skeleton File
:root
   axis xyz
   order TX TY TZ RX RY RZ
   position 0.000000 0.000000 0.000000
   orientation 0 0 0
:bonedata
   begin
      id 1
      name Spine_dum
      direction 0.000000 1.000000 0.000000
      length 7.067664
      axis 0.0 0.0 0.0 xyz
   end
   begin
      id 2
      name LeftUpLeg_dum
      direction 1.000000 0.000000 0.000000
      length 4.013002
      axis 0.0 0.0 0.0 xyz
   end
   begin
      id 3
      name RightUpLeg_dum
      direction -1.000000 0.000000 0.000000
      length 4.013002
      axis 0.0 0.0 0.0 xyz
   end
   begin
      id 4
      name Spine
      direction 0.000000 1.000000 0.000000
      length 0.000000
      axis 0.0 0.0 0.0 xyz
      dof rx ry rz
   end
   begin
      id 5
      name Spine_dum1
      direction 0.000000 1.000000 0.000000
      length 15.039886
      axis 0.0 0.0 0.0 xyz
   end
   begin
      id 6
      name Spine_dum2
      direction 0.000000 1.000000 0.000000
      length 10.530368
      axis 0.0 0.0 0.0 xyz
   end
   begin
      id 7
      name Spine_dum3
      direction 0.000000 1.000000 0.000000
      length 10.530368
      axis 0.0 0.0 0.0 xyz
   end
   begin
      id 8
      name Head
      direction 0.000000 1.000000 0.000000
      length 4.527550
      axis 0.0 0.0 0.0 xyz
      dof rx ry rz
   end
   begin
      id 9
      name LeftShoulder
      direction 1.000000 0.000000 0.000000
      length 7.028855
      axis 0.0 0.0 -90.0 xyz
      dof rx ry rz
   end
   begin
      id 10
      name LeftArm
      direction 1.000000 0.000000 0.000000
      length 10.797705
      axis 0.0 0.0 -90.0 xyz
      dof rx ry rz
   end
   begin
      id 11
      name LeftForeArm
      direction 1.000000 0.000000 0.000000
      length 7.907442
      axis 0.0 0.0 -90.0 xyz
      dof ry rz rx
   end
   begin
      id 12
      name LeftHand
      direction 0.000000 0.000000 0.000000
      length 0.000000
      axis 0.0 0.0 -90.0 xyz
      dof rx ry rz
   end
   begin
      id 13
      name LeftHand_dum1
      direction 0.000000 0.000000 0.000000
      length 0.000000
      axis 0.0 0.0 -90.0 xyz
   end
   begin
      id 14
      name LeftHand_dum2
      direction 1.000000 0.000000 0.000000
      length 3.937000
      axis 0.0 0.0 -90.0 xyz
   end
   begin
      id 15
      name LeftHandThumb1
      direction 0.000000 0.000000 1.000000
      length 3.937000
      axis 0.0 0.0 -90.0 xyz
      dof rx rz ry
   end
   begin
      id 16
      name RightShoulder
      direction -1.000000 0.000000 0.000000
      length 7.028855
      axis 0.0 0.0 90.0 xyz
      dof rx ry rz
   end
   begin
      id 17
      name RightArm
      direction -1.000000 0.000000 0.000000
      length 10.797705
      axis 0.0 0.0 90.0 xyz
      dof rx ry rz
   end
   begin
      id 18
      name RightForeArm
      direction -1.000000 0.000000 0.000000
      length 7.907442
      axis 0.0 0.0 90.0 xyz
      dof ry rz rx
   end
   begin
      id 19
      name RightHand
      direction 0.000000 0.000000 0.000000
      length 0.000000
      axis 0.0 0.0 90.0 xyz
      dof rx ry rz
   end
   begin
      id 20
      name RightHand_dum1
      direction 0.000000 0.000000 0.000000
      length 0.000000
      axis 0.0 0.0 90.0 xyz
   end
   begin
      id 21
      name RightHand_dum2
      direction -1.000000 0.000000 0.000000
      length 3.937000
      axis 0.0 0.0 90.0 xyz
   end
   begin
      id 22
      name RightHandThumb1
      direction 0.000000 0.000000 1.000000
      length 3.937000
      axis 0.0 0.0 90.0 xyz
      dof rx rz ry
   end
   begin
      id 23
      name LeftUpLeg
      direction 0.000000 -1.000000 0.000000
      length 16.899758
      axis 0.0 0.0 0.0 xyz
      dof rx ry rz
   end
   begin
      id 24
      name LeftLeg
      direction 0.000000 -1.000000 0.000000
      length 17.389183
      axis 0.0 0.0 0.0 xyz
      dof rx ry rz
   end
   begin
      id 25
      name LeftFoot
      direction 0.000000 -0.258819 0.965926
      length 4.924528
      axis 15.0 0.0 0.0 xyz
      dof rx ry rz
   end
   begin
      id 26
      name LeftToeBase
      direction 0.000000 0.000000 1.000000
      length 2.952750
      axis 0.0 0.0 0.0 xyz
      dof rx ry rz
   end
   begin
      id 27
      name RightUpLeg
      direction 0.000000 -1.000000 0.000000
      length 16.899758
      axis 0.0 0.0 0.0 xyz
      dof rx ry rz
   end
   begin
      id 28
      name RightLeg
      direction 0.000000 -1.000000 0.000000
      length 17.389183
      axis 0.0 0.0 0.0 xyz
      dof rx ry rz
   end
   begin
      id 29
      name RightFoot
      direction 0.000000 -0.258819 0.965926
      length 4.924528
      axis 15.0 0.0 0.0 xyz
      dof rx ry rz
   end
   begin
      id 30
      name RightToeBase
      direction 0.000000 0.000000 1.000000
      length 2.952750
      axis 0.0 0.0 0.0 xyz
      dof rx ry rz
   end
:hierarchy
   begin
      root Spine_dum LeftUpLeg_dum RightUpLeg_dum
      Spine_dum Spine
      LeftUpLeg_dum LeftUpLeg
      RightUpLeg_dum RightUpLeg
      Spine Spine_dum1 Spine_dum2 Spine_dum3
      Spine_dum1 Head
      Spine_dum2 LeftShoulder
      Spine_dum3 RightShoulder
      LeftShoulder LeftArm
      LeftArm LeftForeArm
      LeftForeArm LeftHand
      LeftHand LeftHand_dum1 LeftHand_dum2
      LeftHand_dum1 LeftHandThumb1
      RightShoulder RightArm
      RightArm RightForeArm
      RightForeArm RightHand
      RightHand RightHand_dum1 RightHand_dum2
      RightHand_dum1 RightHandThumb1
      LeftUpLeg LeftLeg
      LeftLeg LeftFoot
      LeftFoot LeftToeBase
      RightUpLeg RightLeg
      RightLeg RightFoot
      RightFoot RightToeBase
   end

# File created by Blade
# Date/Time:  Wed Jan 21 17:57:11 2015
# Frame Rate: 120.000 fps
#------------------------------------------------------
:FULLY-SPECIFIED
:DEGREES
137
root 20.386938 35.191034 -21.162572 -177.694635 0.170169 -185.026933
Spine 7.539877 3.692400 -5.720608
Head 110.422339 -3.314584 182.284288
LeftShoulder -11.254085 -12.544713 -6.661443
LeftArm -23.050915 1.319310 -74.409433
LeftForeArm 9.952101 -0.000000 2.995713
LeftHand -2.821197 -0.000000 -8.694036
LeftHandThumb1 -26.253704 0.000000 33.147579
RightShoulder -10.023231 -21.489328 4.806238
RightArm 16.377076 -15.445822 72.180289
RightForeArm -27.198998 -0.000000 15.349452
RightHand -6.513349 -0.000000 -3.443402
RightHandThumb1 -24.326973 -0.000000 -32.862282
LeftUpLeg -7.921536 14.106012 9.280268
LeftLeg 14.034480 -0.000000 -0.000000
LeftFoot -14.092465 27.707431 -13.661838
LeftToeBase 9.069454 -0.000000 -0.000000
RightUpLeg -14.387108 -4.097544 -2.451359
RightLeg 28.485345 -0.000000 -0.000000
RightFoot -33.699771 -24.238652 20.360299
RightToeBase 21.780744 -0.000000 -0.000000
138
root 20.388674 35.132094 -21.177732 -177.797570 0.389616 -185.019131
Spine 7.600584 3.634283 -5.854361
Head 110.448064 -3.504817 182.284352
LeftShoulder -11.306061 -12.486898 -6.649263
LeftArm -23.241651 1.134752 -74.310865
LeftForeArm 9.618500 -0.000000 2.833861
LeftHand -2.811663 -0.000000 -8.792619
LeftHandThumb1 -26.253704 0.000000 33.147579
RightShoulder -10.031250 -21.609580 4.874957
RightArm 16.534742 -16.555499 72.003429
RightForeArm -27.304982 -0.000000 15.445731
RightHand -6.274145 -0.000000 -3.667027
RightHandThumb1 -24.326973 -0.000000 -32.862282
LeftUpLeg -7.283740 14.261872 9.970834
LeftLeg 12.882787 -0.000000 -0.000000
LeftFoot -13.030099 30.062058 -12.846702
LeftToeBase 8.905914 -0.000000 -0.000000
RightUpLeg -14.635857 -3.966794 -2.448655
RightLeg 29.158917 -0.000000 -0.000000
RightFoot -34.057430 -24.183736 20.271248
RightToeBase 21.952773 -0.000000 -0.000000
139
root 20.391927 35.074580 -21.196645 -177.911052 0.570297 -184.971876
Spine 7.663863 3.505383 -5.944302
Head 110.431565 -3.748913 182.293713
LeftShoulder -11.335425 -12.523061 -6.685736
LeftArm -23.491918 0.957119 -74.114636
LeftForeArm 9.411907 -0.000000 2.645377
LeftHand -2.703265 -0.000000 -8.984612
LeftHandThumb1 -26.253704 0.000000 33.147579
RightShoulder -10.038652 -21.758779 4.963717
RightArm 16.757166 -17.602864 71.774950
RightForeArm -27.334542 -0.000000 15.511252
RightHand -6.376636 -0.000000 -3.775477
RightHandThumb1 -24.326973 -0.000000 -32.862282
LeftUpLeg -6.635620 14.558572 10.694441
LeftLeg 11.737130 -0.000000 -0.000000
LeftFoot -12.427564 31.949252 -12.469006
LeftToeBase 9.343580 -0.000000 -0.000000
RightUpLeg -14.833180 -3.850647 -2.404971
RightLeg 29.780093 -0.000000 -0.000000
RightFoot -34.400328 -24.081118 20.281714
RightToeBase 21.999866 -0.000000 -0.000000
140
root 20.387102 35.018481 -21.215113 -178.007978 0.737576 -184.921114
Spine 7.702043 3.352174 -6.000080
Head 110.394775 -3.958519 182.231293
LeftShoulder -11.390924 -12.496223 -6.781004
LeftArm -23.602843 0.832693 -73.861071
LeftForeArm 9.107438 -0.000000 2.451220
LeftHand -2.698878 0.000000 -9.160936
LeftHandThumb1 -26.253704 0.000000 33.147579
RightShoulder -10.014312 -21.818061 5.036372
RightArm 16.855341 -18.487084 71.594835
RightForeArm -27.737920 -0.000000 15.512088
RightHand -6.220303 0.000000 -4.208869
RightHandThumb1 -24.326973 -0.000000 -32.862282
LeftUpLeg -6.019698 14.933096 11.382527
LeftLeg 10.623962 -0.000000 -0.000000
LeftFoot -11.971871 33.540781 -12.237499
LeftToeBase 10.090240 -0.000000 -0.000000
RightUpLeg -15.026052 -3.775726 -2.371683
RightLeg 30.364751 -0.000000 -0.000000
RightFoot -34.705507 -23.976349 20.264277
RightToeBase 22.027636 -0.000000 -0.000000
141
root 20.374833 34.964858 -21.231988 -178.057753 0.901381 -184.859936
Spine 7.679792 3.179115 -6.035263
Head 110.319609 -4.193760 182.207800
LeftShoulder -11.491018 -12.506980 -6.869185
LeftArm -23.679635 0.851825 -73.666907
LeftForeArm 8.971617 -0.000000 2.232910
LeftHand -2.608599 -0.000000 -9.322479
LeftHandThumb1 -26.253704 0.000000 33.147579
RightShoulder -10.061116 -21.961058 5.183472
RightArm 17.078091 -19.267342 71.310688
RightForeArm -28.072937 -0.000000 15.475531
RightHand -6.026782 -0.000000 -4.594697
RightHandThumb1 -24.326973 -0.000000 -32.862282
LeftUpLeg -5.443288 15.313526 12.027727
LeftLeg 9.531243 -0.000000 -0.000000
LeftFoot -11.384760 34.796885 -11.946064
LeftToeBase 10.720849 -0.000000 -0.000000
RightUpLeg -15.250310 -3.674720 -2.336881
RightLeg 30.913305 -0.000000 -0.000000
RightFoot -35.015145 -23.881005 20.320042
RightToeBase 22.055463 -0.000000 -0.000000
142
root 20.354287 34.913419 -21.249709 -178.108266 1.046577 -184.820893
Spine 7.661320 2.984556 -6.082772
Head 110.240744 -4.417235 182.140915
LeftShoulder -11.566668 -12.594755 -6.964432
LeftArm -23.832645 0.830324 -73.401452
LeftForeArm 8.838309 0.000000 2.166822
LeftHand -2.791256 -0.000000 -9.440163
LeftHandThumb1 -26.253704 0.000000 33.147579
RightShoulder -10.090158 -22.007527 5.310656
RightArm 17.213884 -19.901125 71.059780
RightForeArm -28.195505 0.000000 15.442721
RightHand -5.958952 0.000000 -4.589697
RightHandThumb1 -24.326973 -0.000000 -32.862282
LeftUpLeg -4.865957 15.767655 12.602689
LeftLeg 8.475044 -0.000000 -0.000000
LeftFoot -10.525182 35.596017 -11.595871
LeftToeBase 11.008310 -0.000000 -0.000000
RightUpLeg -15.469262 -3.608531 -2.340158
RightLeg 31.464040 -0.000000 -0.000000
RightFoot -35.287609 -23.774212 20.354936
RightToeBase 22.070915 -0.000000 -0.000000
143
root 20.326413 34.863619 -21.264673 -178.121510 1.121843 -184.834701
Spine 7.598947 2.695672 -6.196340
Head 110.136047 -4.607622 182.080275
LeftShoulder -11.679191 -12.636845 -7.034393
LeftArm -23.893166 0.827085 -73.126270
LeftForeArm 8.776611 -0.000000 2.087986
LeftHand -2.756730 0.000000 -9.609687
LeftHandThumb1 -26.253704 0.000000 33.147579
RightShoulder -10.136137 -22.077092 5.449032
RightArm 17.369411 -20.355179 70.834525
RightForeArm -28.239142 -0.000000 15.413642
RightHand -5.919557 -0.000000 -4.392344
RightHandThumb1 -24.326973 -0.000000 -32.862282
LeftUpLeg -4.378403 16.146711 13.078371
LeftLeg 7.504469 -0.000000 -0.000000
LeftFoot -9.308704 36.025870 -11.160142
LeftToeBase 11.475616 -0.000000 -0.000000
RightUpLeg -15.733981 -3.704487 -2.410155
RightLeg 32.036121 -0.000000 -0.000000
RightFoot -35.564589 -23.570688 20.388672
RightToeBase 22.148549 -0.000000 -0.000000
144
root 20.288426 34.815137 -21.276976 -178.102954 1.201741 -184.858452
Spine 7.499812 2.396311 -6.292767
Head 110.058156 -4.781955 181.918914
LeftShoulder -11.788455 -12.708927 -7.086692
LeftArm -23.945886 0.824754 -72.882513
LeftForeArm 8.813594 0.000000 2.019937
LeftHand -2.738029 -0.000000 -9.630220
LeftHandThumb1 -26.253704 0.000000 33.147579
RightShoulder -10.186647 -22.201650 5.589654
RightArm 17.594696 -20.723328 70.575675
RightForeArm -28.083928 -0.000000 15.337691
RightHand -5.909487 -0.000000 -4.308488
RightHandThumb1 -24.326973 -0.000000 -32.862282
LeftUpLeg -3.923454 16.577907 13.487044
LeftLeg 6.558214 -0.000000 -0.000000
LeftFoot -7.839486 36.135646 -10.831885
LeftToeBase 11.907474 -0.000000 -0.000000
RightUpLeg -16.021388 -3.677136 -2.499416
RightLeg 32.581025 -0.000000 -0.000000
RightFoot -35.860998 -23.476629 20.455895
RightToeBase 22.197841 -0.000000 -0.000000
145
root 20.244355 34.767536 -21.288946 -178.101114 1.289249 -184.925540
Spine 7.432317 2.151946 -6.443399
Head 109.987873 -4.972704 181.885559
LeftShoulder -11.857308 -12.789790 -7.095100
LeftArm -23.978346 0.745643 -72.610732
LeftForeArm 8.858627 0.000000 2.053558
LeftHand -2.838585 -0.000000 -9.585935
LeftHandThumb1 -26.253704 0.000000 33.147579
RightShoulder -10.254897 -22.286667 5.725203
RightArm 17.742690 -20.858607 70.415241
RightForeArm -27.780391 -0.000000 15.354104
RightHand -5.973824 -0.000000 -3.885554
RightHandThumb1 -24.326973 -0.000000 -32.862282
LeftUpLeg -3.462064 16.974895 13.829321
LeftLeg 5.686111 -0.000000 -0.000000
LeftFoot -6.246076 35.936799 -10.659343
LeftToeBase 12.552269 -0.000000 -0.000000
RightUpLeg -16.314022 -3.755798 -2.651567
RightLeg 33.168853 -0.000000 -0.000000
RightFoot -36.077677 -23.285426 20.407969
RightToeBase 22.214474 -0.000000 -0.000000
146
root 20.189656 34.720010 -21.292761 -178.053927 1.386545 -185.055922
Spine 7.325842 1.858798 -6.657109
Head 109.965839 -5.249934 181.895056
LeftShoulder -11.937035 -12.840091 -7.083469
LeftArm -24.000922 0.611077 -72.321482
LeftForeArm 8.886650 -0.000000 2.227405
LeftHand -2.923577 -0.000000 -9.639381
LeftHandThumb1 -26.253704 0.000000 33.147579
RightShoulder -10.221958 -22.356618 5.814467
RightArm 17.834871 -20.893709 70.318016
RightForeArm -27.494628 -0.000000 15.321459
RightHand -5.937988 0.000000 -3.680250
RightHandThumb1 -24.326973 -0.000000 -32.862282
LeftUpLeg -3.075685 17.311930 14.053986
LeftLeg 4.879759 -0.000000 -0.000000
LeftFoot -4.534363 35.573584 -10.609744
LeftToeBase 13.247280 -0.000000 -0.000000
RightUpLeg -16.686180 -3.761033 -2.875093
RightLeg 33.779332 -0.000000 -0.000000
RightFoot -36.357096 -23.153572 20.436290
RightToeBase 22.309533 -0.000000 -0.000000
147
root 20.129464 34.673442 -21.294902 -178.011550 1.469464 -185.172625
Spine 7.237067 1.635046 -6.837645
Head 109.951301 -5.332489 181.678743
LeftShoulder -11.916786 -12.901254 -7.064917
LeftArm -24.031018 0.394610 -72.019869
LeftForeArm 8.923969 -0.000000 2.481343
LeftHand -3.124204 -0.000000 -9.524503
LeftHandThumb1 -26.253704 0.000000 33.147579
RightShoulder -10.283773 -22.408704 5.919439
RightArm 17.926603 -20.858355 70.244373
RightForeArm -27.271119 0.000000 15.304080
RightHand -6.053182 -0.000000 -3.476016
RightHandThumb1 -24.326973 -0.000000 -32.862282
LeftUpLeg -2.693911 17.482927 14.262293
LeftLeg 4.135668 -0.000000 -0.000000
LeftFoot -2.735075 35.033488 -10.564991
LeftToeBase 13.744924 -0.000000 -0.000000
RightUpLeg -17.023750 -3.756316 -3.093188
RightLeg 34.330909 -0.000000 -0.000000
RightFoot -36.633228 -23.046845 20.482608
RightToeBase 22.418388 -0.000000 -0.000000
148
root 20.064984 34.626219 -21.297555 -177.969364 1.532522 -185.305099
Spine 7.161773 1.348846 -7.027575
Head 109.969871 -5.557758 181.637256
LeftShoulder -11.944136 -13.004110 -7.004987
LeftArm -24.056134 0.242950 -71.749236
LeftForeArm 9.023892 -0.000000 2.747148
LeftHand -3.207762 -0.000000 -9.383127
LeftHandThumb1 -26.253704 0.000000 33.147579
RightShoulder -10.255638 -22.480795 5.976831
RightArm 17.974370 -20.744816 70.218241
RightForeArm -26.989660 -0.000000 15.296544
RightHand -6.166995 0.000000 -3.301361
RightHandThumb1 -24.326973 -0.000000 -32.862282
LeftUpLeg -2.331845 17.570202 14.427505
LeftLeg 3.459956 -0.000000 -0.000000
LeftFoot -0.882303 34.293163 -10.540091
LeftToeBase 14.373226 -0.000000 -0.000000
RightUpLeg -17.357217 -3.775908 -3.329962
RightLeg 34.883424 -0.000000 -0.000000
RightFoot -36.911374 -22.956578 20.510730
RightToeBase 22.461790 -0.000000 -0.000000
